REM MD5 156b89bae4f53e5b1ee91431e12e0e1c
FILE "Ai to Yuujou no Neko Monogatari. Jingle Cats - Love Para Daisakusen no Maki (Japan).bin" BINARY
  TRACK 01 MODE2/2352
    INDEX 01 00:00:00
  TRACK 02 AUDIO
    INDEX 00 30:23:59
    INDEX 01 30:25:59
  TRACK 03 AUDIO
    INDEX 00 32:30:67
    INDEX 01 32:32:67
  TRACK 04 AUDIO
    INDEX 00 34:22:61
    INDEX 01 34:24:61
  TRACK 05 AUDIO
    INDEX 00 36:28:39
    INDEX 01 36:30:39
REM LEADOUT 39:40:39
